<svg xmlns="http://www.w3.org/2000/svg" viewBox="0 0 64 64" width="64" height="64"><defs><linearGradient id="st" x1="0" y1="0" x2="0.7" y2="1"><stop offset="0" stop-color="#d5dade"/><stop offset="0.5" stop-color="#8d949c"/><stop offset="1" stop-color="#4a5057"/></linearGradient><radialGradient id="co" cx="0.36" cy="0.3" r="0.75"><stop offset="0" stop-color="#ffffff"/><stop offset="0.3" stop-color="#dde1e5"/><stop offset="0.75" stop-color="#8d949c"/><stop offset="1" stop-color="#50565d"/></radialGradient><linearGradient id="pa" x1="0" y1="0" x2="0" y2="1"><stop offset="0" stop-color="#fbf8ee"/><stop offset="1" stop-color="#d6d0bd"/></linearGradient><linearGradient id="sb" x1="0" y1="0" x2="0.6" y2="1"><stop offset="0" stop-color="#aebccb"/><stop offset="1" stop-color="#5b6c80"/></linearGradient><linearGradient id="si" x1="0" y1="0" x2="0" y2="1"><stop offset="0" stop-color="#6f8297"/><stop offset="1" stop-color="#3e4d5e"/></linearGradient><linearGradient id="gc" x1="0" y1="0" x2="1" y2="1"><stop offset="0" stop-color="#f7edc6"/><stop offset="0.5" stop-color="#c9b16a"/><stop offset="1" stop-color="#7c6a33"/></linearGradient><linearGradient id="ce" x1="0" y1="0" x2="1" y2="0"><stop offset="0" stop-color="#3c4148"/><stop offset="1" stop-color="#2a2e33"/></linearGradient></defs><path d="M20 64 V20 H64" fill="none" stroke="#1d2125" stroke-width=".8" stroke-opacity=".8"/><path d="M24 2.6 H64 V16.4 H24 Z" fill="url(#pa)" stroke="#8d866f" stroke-width=".35"/><g fill="#6d6a5e" opacity=".6"><rect x="27" y="5" width="4" height=".9"/><rect x="34" y="5" width="5" height=".9"/><rect x="42" y="5" width="5" height=".9"/><rect x="49" y="5" width="6" height=".9"/><rect x="57" y="5" width="6" height=".9"/><rect x="29" y="8" width="3" height=".9"/><rect x="36" y="8" width="4" height=".9"/><rect x="44" y="8" width="4" height=".9"/><rect x="51" y="8" width="5" height=".9"/><rect x="59" y="8" width="5" height=".9"/><rect x="31" y="11" width="6" height=".9"/><rect x="38" y="11" width="3" height=".9"/><rect x="46" y="11" width="3" height=".9"/><rect x="53" y="11" width="4" height=".9"/><rect x="61" y="11" width="4" height=".9"/></g><path d="M24 2.6 c-2 0-2 13.8 0 13.8" fill="#bdb6a2"/><rect x="3" y="24" width="14" height="3" rx="1.2" fill="url(#ce)" stroke="#1d2125" stroke-width=".3"/><rect x="3.4" y="24.5" width="13.2" height="1.2" rx=".6" fill="url(#st)"/><path d="M4 26.4 h12" stroke="#1d2125" stroke-width=".5" stroke-dasharray=".3 .4"/><rect x="3" y="27.2" width="14" height="3" rx="1.2" fill="url(#ce)" stroke="#1d2125" stroke-width=".3"/><rect x="3.4" y="27.7" width="13.2" height="1.2" rx=".6" fill="url(#st)"/><path d="M4 29.6 h12" stroke="#1d2125" stroke-width=".5" stroke-dasharray=".3 .4"/><rect x="3" y="30.4" width="14" height="3" rx="1.2" fill="url(#ce)" stroke="#1d2125" stroke-width=".3"/><rect x="3.4" y="30.9" width="13.2" height="1.2" rx=".6" fill="url(#st)"/><path d="M4 32.8 h12" stroke="#1d2125" stroke-width=".5" stroke-dasharray=".3 .4"/><rect x="3" y="33.6" width="14" height="3" rx="1.2" fill="url(#ce)" stroke="#1d2125" stroke-width=".3"/><rect x="3.4" y="34.1" width="13.2" height="1.2" rx=".6" fill="url(#st)"/><path d="M4 36 h12" stroke="#1d2125" stroke-width=".5" stroke-dasharray=".3 .4"/><rect x="3" y="36.8" width="14" height="3" rx="1.2" fill="url(#ce)" stroke="#1d2125" stroke-width=".3"/><rect x="3.4" y="37.3" width="13.2" height="1.2" rx=".6" fill="url(#st)"/><path d="M4 39.2 h12" stroke="#1d2125" stroke-width=".5" stroke-dasharray=".3 .4"/><rect x="3" y="40" width="14" height="3" rx="1.2" fill="url(#ce)" stroke="#1d2125" stroke-width=".3"/><rect x="3.4" y="40.5" width="13.2" height="1.2" rx=".6" fill="url(#st)"/><path d="M4 42.4 h12" stroke="#1d2125" stroke-width=".5" stroke-dasharray=".3 .4"/><rect x="3" y="43.2" width="14" height="3" rx="1.2" fill="url(#ce)" stroke="#1d2125" stroke-width=".3"/><rect x="3.4" y="43.7" width="13.2" height="1.2" rx=".6" fill="url(#st)"/><path d="M4 45.6 h12" stroke="#1d2125" stroke-width=".5" stroke-dasharray=".3 .4"/><rect x="3" y="46.4" width="14" height="3" rx="1.2" fill="url(#ce)" stroke="#1d2125" stroke-width=".3"/><rect x="3.4" y="46.9" width="13.2" height="1.2" rx=".6" fill="url(#st)"/><path d="M4 48.8 h12" stroke="#1d2125" stroke-width=".5" stroke-dasharray=".3 .4"/><rect x="3" y="49.6" width="14" height="3" rx="1.2" fill="url(#ce)" stroke="#1d2125" stroke-width=".3"/><rect x="3.4" y="50.1" width="13.2" height="1.2" rx=".6" fill="url(#st)"/><path d="M4 52 h12" stroke="#1d2125" stroke-width=".5" stroke-dasharray=".3 .4"/><rect x="3" y="52.8" width="14" height="3" rx="1.2" fill="url(#ce)" stroke="#1d2125" stroke-width=".3"/><rect x="3.4" y="53.3" width="13.2" height="1.2" rx=".6" fill="url(#st)"/><path d="M4 55.2 h12" stroke="#1d2125" stroke-width=".5" stroke-dasharray=".3 .4"/><rect x="3" y="56" width="14" height="3" rx="1.2" fill="url(#ce)" stroke="#1d2125" stroke-width=".3"/><rect x="3.4" y="56.5" width="13.2" height="1.2" rx=".6" fill="url(#st)"/><path d="M4 58.4 h12" stroke="#1d2125" stroke-width=".5" stroke-dasharray=".3 .4"/><rect x="3" y="59.2" width="14" height="3" rx="1.2" fill="url(#ce)" stroke="#1d2125" stroke-width=".3"/><rect x="3.4" y="59.7" width="13.2" height="1.2" rx=".6" fill="url(#st)"/><path d="M4 61.6 h12" stroke="#1d2125" stroke-width=".5" stroke-dasharray=".3 .4"/><rect x="3" y="62.4" width="14" height="3" rx="1.2" fill="url(#ce)" stroke="#1d2125" stroke-width=".3"/><rect x="3.4" y="62.9" width="13.2" height="1.2" rx=".6" fill="url(#st)"/><path d="M4 64.8 h12" stroke="#1d2125" stroke-width=".5" stroke-dasharray=".3 .4"/><g transform="rotate(-10 13 13)"><path d="M2.4 2.4L2.8 2.4A0.85 0.85 0 0 0 4.5 2.4L5.3 2.4A0.85 0.85 0 0 0 7 2.4L7.8 2.4A0.85 0.85 0 0 0 9.5 2.4L10.3 2.4A0.85 0.85 0 0 0 12 2.4L12.8 2.4A0.85 0.85 0 0 0 14.5 2.4L15.3 2.4A0.85 0.85 0 0 0 17 2.4L17.8 2.4A0.85 0.85 0 0 0 19.5 2.4L20.3 2.4A0.85 0.85 0 0 0 22 2.4L22.4 2.4L22.4 2.8A0.85 0.85 0 0 0 22.4 4.5L22.4 5.3A0.85 0.85 0 0 0 22.4 7L22.4 7.8A0.85 0.85 0 0 0 22.4 9.5L22.4 10.3A0.85 0.85 0 0 0 22.4 12L22.4 12.8A0.85 0.85 0 0 0 22.4 14.5L22.4 15.3A0.85 0.85 0 0 0 22.4 17L22.4 17.8A0.85 0.85 0 0 0 22.4 19.5L22.4 20.3A0.85 0.85 0 0 0 22.4 22L22.4 22.4L22 22.4A0.85 0.85 0 0 0 20.3 22.4L19.5 22.4A0.85 0.85 0 0 0 17.8 22.4L17 22.4A0.85 0.85 0 0 0 15.3 22.4L14.5 22.4A0.85 0.85 0 0 0 12.8 22.4L12 22.4A0.85 0.85 0 0 0 10.3 22.4L9.5 22.4A0.85 0.85 0 0 0 7.8 22.4L7 22.4A0.85 0.85 0 0 0 5.3 22.4L4.5 22.4A0.85 0.85 0 0 0 2.8 22.4L2.4 22.4L2.4 22A0.85 0.85 0 0 0 2.4 20.3L2.4 19.5A0.85 0.85 0 0 0 2.4 17.8L2.4 17A0.85 0.85 0 0 0 2.4 15.3L2.4 14.5A0.85 0.85 0 0 0 2.4 12.8L2.4 12A0.85 0.85 0 0 0 2.4 10.3L2.4 9.5A0.85 0.85 0 0 0 2.4 7.8L2.4 7A0.85 0.85 0 0 0 2.4 5.3L2.4 4.5A0.85 0.85 0 0 0 2.4 2.8L2.4 2.4Z" fill="url(#sb)" stroke="#2a3542" stroke-width=".45"/><rect x="4.4" y="4.4" width="16" height="16" rx=".6" fill="url(#si)" stroke="#e6edf4" stroke-opacity=".75" stroke-width=".4"/><g fill="none" stroke="#eef3f8" stroke-width=".4"><circle cx="15.6" cy="12.4" r="3.2"/><circle cx="14" cy="15.17" r="3.2"/><circle cx="10.8" cy="15.17" r="3.2"/><circle cx="9.2" cy="12.4" r="3.2"/><circle cx="10.8" cy="9.63" r="3.2"/><circle cx="14" cy="9.63" r="3.2"/><circle cx="12.4" cy="12.4" r="6.4"/></g><circle cx="12.4" cy="12.4" r=".7" fill="#eef3f8"/></g><path d="M2 1.6 H16.6 L21 6 V21.2 H2 Z" fill="url(#st)" stroke="#1d2125" stroke-width=".55"/><path d="M2.7 2.3 H16.3 L20.3 6.3" fill="none" stroke="#fff" stroke-opacity=".6" stroke-width=".4"/><rect x="7.4" y="8.7" width="10" height="10.4" rx="1.4" fill="url(#gc)" stroke="#5a4a1e" stroke-width=".45"/><g fill="none" stroke="#5a4a1e" stroke-width=".35" opacity=".8"><rect x="8.2" y="9.5" width="3.8" height="2.7" rx=".4"/><rect x="12.4" y="9.5" width="3.8" height="2.7" rx=".4"/><rect x="8.2" y="12.6" width="3.8" height="2.7" rx=".4"/><rect x="12.4" y="12.6" width="3.8" height="2.7" rx=".4"/><rect x="8.2" y="15.7" width="3.8" height="2.7" rx=".4"/><rect x="12.4" y="15.7" width="3.8" height="2.7" rx=".4"/></g><circle cx="19.4" cy="19.4" r="4.4" fill="url(#co)" stroke="#2c3137" stroke-width=".55"/><circle cx="19.4" cy="19.4" r="3.65" fill="none" stroke="#3a4047" stroke-opacity=".7" stroke-width=".8" stroke-dasharray=".45 .55"/><circle cx="19.4" cy="19.4" r="2.9" fill="none" stroke="#fff" stroke-opacity=".55" stroke-width=".45"/><circle cx="19.4" cy="19.4" r="2.9" fill="none" stroke="#2c3137" stroke-opacity=".5" stroke-width=".45" transform="translate(.35 .35)"/><polygon points="19.4,17.64 19.84,18.79 21.07,18.86 20.11,19.63 20.43,20.82 19.4,20.15 18.37,20.82 18.69,19.63 17.73,18.86 18.96,18.79" fill="#5c636b" opacity=".85"/><polygon points="19.4,17.64 19.84,18.79 21.07,18.86 20.11,19.63 20.43,20.82 19.4,20.15 18.37,20.82 18.69,19.63 17.73,18.86 18.96,18.79" fill="#f4f6f8" opacity=".55" transform="translate(-.3 -.3)"/><circle cx="32" cy="17.2" r="1.55" fill="url(#co)" stroke="#2c3137" stroke-width=".4"/><circle cx="17.2" cy="32" r="1.55" fill="url(#co)" stroke="#2c3137" stroke-width=".4"/><circle cx="40" cy="17.2" r="1.55" fill="url(#co)" stroke="#2c3137" stroke-width=".4"/><circle cx="17.2" cy="40" r="1.55" fill="url(#co)" stroke="#2c3137" stroke-width=".4"/><circle cx="48" cy="17.2" r="1.55" fill="url(#co)" stroke="#2c3137" stroke-width=".4"/><circle cx="17.2" cy="48" r="1.55" fill="url(#co)" stroke="#2c3137" stroke-width=".4"/><circle cx="56" cy="17.2" r="1.55" fill="url(#co)" stroke="#2c3137" stroke-width=".4"/><circle cx="17.2" cy="56" r="1.55" fill="url(#co)" stroke="#2c3137" stroke-width=".4"/></svg>
